<svg xmlns="http://www.w3.org/2000/svg" height="1024" width="768" style=""><rect id="backgroundrect" width="100%" height="100%" x="0" y="0" fill="none" stroke="none"/>
  
<g class="currentLayer" style=""><title>Layer 1</title><path d="M633.5595234992952,449.05356234012817 c-46.49993139180461,0 -86.53136839052353,25.690418788055915 -108.0116516581288,63.372693898508565 C519.9337068962241,512.0298473746982 514.4415890153023,511.5416591186163 508.5833299423191,511.5416591186163 c-127.96585843722197,0 -249.40366351411618,-97.48533648049005 -293.7057713770399,-218.15961512487215 C241.51408619362184,270.4684400062823 258.63094282836676,236.905497400649 258.63094282836676,199.10117522617585 c0,-68.98685884345085 -55.989334713525324,-124.97619355697616 -124.97619355697616,-124.97619355697616 S8.678555714414436,130.11431638272506 8.678555714414436,199.10117522617585 c0,46.103522527866076 25.233474580363215,85.98166841417526 62.48809677848808,107.67577813794443 V716.3366325449892 C33.91203029477765,738.0004745968814 8.678555714414436,777.8483528113134 8.678555714414436,823.9821430110567 c0,68.95659117157375 55.989334713525324,124.97619355697616 124.97619355697616,124.97619355697616 s124.97619355697616,-56.0196023854024 124.97619355697616,-124.97619355697616 c0,-46.133790199743146 -25.233474580363215,-85.98166841417526 -62.48809677848808,-107.64551046606735 V491.49567294737966 C278.31078780754183,578.4234502018418 391.78428967471535,636.5178526755924 508.5833299423191,636.5178526755924 c6.224400265044712,0 11.35037695390506,-0.427652912327778 16.96454189884735,-0.6102353201024228 C547.1502021727922,673.4366013535329 587.181639171511,699.0059494540805 633.5595234992952,699.0059494540805 c68.95659117157375,0 124.97619355697616,-56.0196023854024 124.97619355697616,-124.97619355697616 C758.5357170562713,505.04289705365346 702.516114670869,449.05356234012817 633.5595234992952,449.05356234012817 zM133.6547492713906,886.4702397895447 c-34.4778073975308,0 -62.48809677848808,-27.948777660690958 -62.48809677848808,-62.48809677848808 c0,-34.4778073975308 28.010289380957282,-62.48809677848808 62.48809677848808,-62.48809677848808 c34.5695867896742,0 62.48809677848808,28.010289380957282 62.48809677848808,62.48809677848808 C196.14284604987867,858.5214621288538 168.2243360610648,886.4702397895447 133.6547492713906,886.4702397895447 zM133.6547492713906,261.58927200466394 c-34.4778073975308,0 -62.48809677848808,-27.918509988813877 -62.48809677848808,-62.48809677848808 s28.010289380957282,-62.48809677848808 62.48809677848808,-62.48809677848808 c34.5695867896742,0 62.48809677848808,27.918509988813877 62.48809677848808,62.48809677848808 S168.2243360610648,261.58927200466394 133.6547492713906,261.58927200466394 zM633.5595234992952,636.5178526755924 c-34.4778073975308,0 -62.48809677848808,-27.948777660690958 -62.48809677848808,-62.48809677848808 c0,-34.5695867896742 28.010289380957282,-62.48809677848808 62.48809677848808,-62.48809677848808 c34.53931911779713,0 62.48809677848808,27.918509988813877 62.48809677848808,62.48809677848808 C696.0476202777834,608.5690750149014 668.0988426170925,636.5178526755924 633.5595234992952,636.5178526755924 z" id="svg_1" class="selected" fill="#ffffff" fill-opacity="1" stroke="#000000" stroke-opacity="1" stroke-width="16"/></g></svg>