<svg xmlns="http://www.w3.org/2000/svg" height="888" width="766" style=""><rect id="backgroundrect" width="100%" height="100%" x="0" y="0" fill="none" stroke="none" class="" style=""/>
  
<g class="currentLayer" style=""><title>Layer 1</title><path d="M628.0292943354964,382.8175690177055 c-45.61800024277126,0 -84.89018942814911,25.20316687428446 -105.9630714300592,62.170749055271635 C516.5585378367563,444.5994276142146 511.1705850521769,444.1204984778076 505.42343541529243,444.1204984778076 c-125.53882095156088,0 -244.67340149108665,-95.63640139085047 -288.1352627617535,-214.02193676103565 C243.41950419418032,207.6195437703708 260.2117175748842,174.6931656423863 260.2117175748842,137.60585117729732 c0,-67.67843412395267 -54.927424796251444,-122.60585892020411 -122.60585892020411,-122.60585892020411 S14.999999734475963,69.9274170533447 14.999999734475963,137.60585117729732 c0,45.229109784008735 24.754889202607462,84.3509152205548 61.30292946010206,105.63356818421117 V645.0312712005639 C39.754888937083436,666.284230557763 14.999999734475963,705.376342387852 14.999999734475963,750.6351457783179 c0,67.64874051749543 54.927424796251444,122.60585892020411 122.60585892020411,122.60585892020411 s122.60585892020411,-54.95711840270868 122.60585892020411,-122.60585892020411 c0,-45.25880339046597 -24.754889202607462,-84.3509152205548 -61.30292946010206,-105.60387457775393 V424.4547102786615 C279.518308921725,509.73379016557317 390.8396395299063,566.7263573980118 505.42343541529243,566.7263573980118 c6.1063464891898525,0 11.135102421463849,-0.4195419234925738 16.64278749014489,-0.59866142050881 C543.2588371914492,602.9448944096582 582.531026376827,628.0292868581138 628.0292943354964,628.0292868581138 c67.64874051749543,0 122.60585892020411,-54.95711840270868 122.60585892020411,-122.60585892020411 C750.6351532557005,437.7449938139571 695.6780348529919,382.8175690177055 628.0292943354964,382.8175690177055 zM137.60585865468008,811.93807523842 c-33.82389132961131,0 -61.30292946010206,-27.418693059303457 -61.30292946010206,-61.30292946010206 c0,-33.82389132961131 27.479038130490746,-61.30292946010206 61.30292946010206,-61.30292946010206 c33.91393000725584,0 61.30292946010206,27.479038130490746 61.30292946010206,61.30292946010206 C198.90878811478214,784.5193821791164 171.51978866193593,811.93807523842 137.60585865468008,811.93807523842 zM137.60585865468008,198.9087806373994 c-33.82389132961131,0 -61.30292946010206,-27.38899945284622 -61.30292946010206,-61.30292946010206 s27.479038130490746,-61.30292946010206 61.30292946010206,-61.30292946010206 c33.91393000725584,0 61.30292946010206,27.38899945284622 61.30292946010206,61.30292946010206 S171.51978866193593,198.9087806373994 137.60585865468008,198.9087806373994 zM628.0292943354964,566.7263573980118 c-33.82389132961131,0 -61.30292946010206,-27.418693059303457 -61.30292946010206,-61.30292946010206 c0,-33.91393000725584 27.479038130490746,-61.30292946010206 61.30292946010206,-61.30292946010206 c33.8842364007986,0 61.30292946010206,27.38899945284622 61.30292946010206,61.30292946010206 C689.3322237955986,539.3076643387083 661.9135307362951,566.7263573980118 628.0292943354964,566.7263573980118 z" id="svg_1" class="selected" fill="#4d067c" fill-opacity="1" stroke-opacity="1" stroke="#dbbcff" stroke-width="30" stroke-dasharray="none"/></g></svg>